<?xml version="1.0" encoding="UTF-8" standalone="no"?>
<!-- Created with Inkscape (http://www.inkscape.org/) by still@itserv.ru -->

<svg
   width="256"
   height="256"
   viewBox="0 0 67.733332 67.733333"
   version="1.1"
   id="svg1"
   inkscape:version="1.4.2 (2aeb623e1d, 2025-05-12)"
   sodipodi:docname="favicon.svg"
  <sodipodi:namedview
  <defs
     id="defs1">
    <rect
       x="-28.313035"
       y="160.60325"
       width="42.957708"
       height="66.87734"
       id="rect9" />
  </defs>
  <g
     inkscape:label="Layer 1"
     inkscape:groupmode="layer"
     id="layer1">
    <circle
       style="fill:#f9f9f9;stroke-width:1;stroke-linecap:round;stroke-linejoin:bevel;paint-order:stroke fill markers"
       id="path1"
       cx="33.866665"
       cy="33.866665"
       r="33.866665" />
    <path
       id="path8"
       style="fill:#000000;fill-opacity:1;stroke:none;stroke-width:1;stroke-linecap:round;stroke-linejoin:bevel;paint-order:stroke fill markers"
       d="M 34.162256,4.5206543 C 18.005755,4.5207816 4.9083547,17.618182 4.9082275,33.774683 4.9080695,49.931386 18.005553,63.029101 34.162256,63.029228 50.318959,63.0291 63.416442,49.931386 63.416284,33.774683 63.416157,17.618182 50.318757,4.5207819 34.162256,4.5206543 Z m 2.08101,4.3299683 1.481046,3.8400754 3.59668,0.93586 3.301607,-2.568835 3.775997,2.158525 -0.637687,4.065901 2.647384,2.609143 4.143416,-0.574125 2.191081,3.757394 -2.585372,3.202388 0.988053,3.583244 3.875733,1.574581 0.0186,4.349088 -3.840076,1.481564 -0.93586,3.596679 2.568836,3.301608 -2.158525,3.775996 -4.066418,-0.637687 -2.608627,2.647384 0.574126,4.143416 -3.757394,2.191081 -3.202905,-2.585372 -3.582727,0.988053 -1.574581,3.875733 -4.349089,0.0186 -1.481563,-3.840592 -3.59668,-0.935343 -3.301607,2.568835 -3.775997,-2.158525 0.637687,-4.066418 -2.647383,-2.608626 -4.143417,0.574125 -2.190564,-3.757394 2.584856,-3.202905 -0.988054,-3.582727 -3.8757322,-1.574581 -0.018603,-4.349605 3.8400757,-1.481047 0.93586,-3.597196 -2.568835,-3.301091 2.158524,-3.775997 4.066419,0.637688 2.608626,-2.647384 -0.574125,-4.143933 3.757393,-2.190564 3.202906,2.585372 0.682535,-0.188231 2.900192,-0.799823 1.57458,-3.8757319 z M 34.079057,22.788273 c -3.361359,0 -6.001522,0.964555 -7.920964,2.893364 -1.910078,1.928808 -2.865458,4.344506 -2.865458,7.247102 0,3.258329 1.21756,5.631769 3.651974,7.120496 h -4.311882 v 4.087089 h 9.620601 v -4.381645 c -0.355797,-0.19631 -0.669493,-0.430467 -0.941027,-0.702282 -1.619822,-1.638585 -2.429826,-3.637509 -2.429826,-5.99705 0,-1.797719 0.453967,-3.305522 1.362191,-4.522722 0.908223,-1.217199 2.18648,-1.825728 3.834391,-1.825728 1.64791,0 2.926167,0.608529 3.834391,1.825728 0.908223,1.2172 1.362191,2.725003 1.362191,4.522722 0,2.359541 -0.810005,4.358465 -2.429826,5.99705 -0.271535,0.271815 -0.585231,0.505972 -0.941028,0.702282 v 4.381645 h 9.620602 v -4.087089 h -4.311365 c 2.434413,-1.488727 3.651457,-3.862167 3.651457,-7.120496 0,-2.902596 -0.959969,-5.318294 -2.879411,-7.247102 -1.910078,-1.928809 -4.545648,-2.893364 -7.907011,-2.893364 z"
       sodipodi:nodetypes="cccccccccccccccccccccccccccccccccccccccccccccccccccccccscsccccccsssssccccccscs" />
  </g>
</svg>
