<?xml version="1.0" encoding="UTF-8" standalone="no"?>
<!-- Created with Inkscape (http://www.inkscape.org/) by still@itserv.ru -->

<svg
   width="256"
   height="256"
   viewBox="0 0 67.733332 67.733333"
   version="1.1"
   id="svg1"
   inkscape:version="1.2.2 (b0a8486541, 2022-12-01)"
   sodipodi:docname="logo.svg"
   xmlns:inkscape="http://www.inkscape.org/namespaces/inkscape"
   xmlns:sodipodi="http://sodipodi.sourceforge.net/DTD/sodipodi-0.dtd"
   xmlns="http://www.w3.org/2000/svg"
   xmlns:svg="http://www.w3.org/2000/svg">
  <sodipodi:namedview
     id="namedview7"
     pagecolor="#505050"
     bordercolor="#eeeeee"
     borderopacity="1"
     inkscape:showpageshadow="0"
     inkscape:pageopacity="0"
     inkscape:pagecheckerboard="0"
     inkscape:deskcolor="#505050"
     showgrid="false"
     inkscape:zoom="3.5039062"
     inkscape:cx="107.02341"
     inkscape:cy="128.2854"
     inkscape:window-width="1920"
     inkscape:window-height="1080"
     inkscape:window-x="1920"
     inkscape:window-y="0"
     inkscape:window-maximized="1"
     inkscape:current-layer="layer1" />
  <defs
     id="defs1">
    <rect
       x="-28.313035"
       y="160.60325"
       width="42.957708"
       height="66.87734"
       id="rect9" />
  </defs>
  <g
     inkscape:label="Layer 1"
     inkscape:groupmode="layer"
     id="layer1">
    <path
       id="path8"
       style="fill:#f9f9f9;fill-opacity:1;stroke:none;stroke-width:1;stroke-linecap:round;stroke-linejoin:bevel;paint-order:stroke fill markers"
       d="M 34.162255 4.5206542 C 18.005788 4.5207815 4.9083547 17.618213 4.9082275 33.774682 C 4.9080695 49.931353 18.005586 63.0291 34.162255 63.029227 C 50.318926 63.029099 63.416441 49.931353 63.416283 33.774682 C 63.416156 17.618213 50.318724 4.5207818 34.162255 4.5206542 z M 36.243265 8.8506224 L 37.724312 12.690698 L 41.320992 13.626558 L 44.622599 11.057723 L 48.398596 13.216247 L 47.760908 17.282149 L 50.408292 19.891292 L 54.551708 19.317167 L 56.742789 23.07456 L 54.157417 26.276949 L 55.145471 29.860193 L 59.021203 31.434773 L 59.039806 35.783862 L 55.199731 37.265425 L 54.263871 40.862105 L 56.832706 44.163712 L 54.674181 47.939709 L 50.607763 47.302022 L 47.999137 49.949405 L 48.573262 54.092822 L 44.815869 56.283902 L 41.612963 53.69853 L 38.030236 54.686584 L 36.455655 58.562316 L 32.106567 58.58092 L 30.625004 54.740327 L 27.028324 53.804984 L 23.726717 56.373819 L 19.95072 54.215295 L 20.588407 50.148876 L 17.941024 47.54025 L 13.797607 48.114375 L 11.607043 44.356982 L 14.191898 41.154077 L 13.203845 37.57135 L 9.3281127 35.996769 L 9.3095092 31.647164 L 13.149585 30.166117 L 14.085445 26.568921 L 11.51661 23.26783 L 13.675134 19.491833 L 17.741553 20.12952 L 20.350179 17.482137 L 19.776054 13.338204 L 23.533447 11.14764 L 26.736352 13.733012 L 27.418998 13.54491 L 30.319079 12.744958 L 31.89366 8.869226 L 36.243265 8.8506224 z M 23.542232 24.445019 L 23.542232 27.953332 L 27.814839 27.953332 L 27.814839 24.445019 L 23.542232 24.445019 z M 41.013517 24.445019 L 41.013517 31.653881 C 40.424767 30.868971 39.772578 30.292182 39.05653 29.923755 C 38.34844 29.547318 37.533073 29.358931 36.610168 29.358931 C 34.96326 29.358931 33.610693 30.019705 32.552535 31.341239 C 31.494377 32.654763 30.965035 34.348693 30.965035 36.423099 C 30.965035 38.497507 31.494377 40.195312 32.552535 41.516845 C 33.610693 42.830369 34.96326 43.487268 36.610168 43.487268 C 37.541029 43.487268 38.360325 43.303274 39.068416 42.934846 C 39.776507 42.566419 40.424767 41.985754 41.013517 41.192834 L 41.013517 43.138968 L 45.309895 43.138968 L 45.309895 24.445019 L 41.013517 24.445019 z M 23.542232 29.683459 L 23.542232 43.138968 L 27.814839 43.138968 L 27.814839 29.683459 L 23.542232 29.683459 z M 38.197151 32.482771 C 39.1121 32.482771 39.808548 32.819231 40.285913 33.492012 C 40.771233 34.164792 41.013517 35.141612 41.013517 36.423099 C 41.013517 37.704586 40.771233 38.681923 40.285913 39.354703 C 39.808548 40.027484 39.1121 40.363944 38.197151 40.363944 C 37.290158 40.363944 36.594227 40.027484 36.108907 39.354703 C 35.631542 38.681923 35.392671 37.704586 35.392671 36.423099 C 35.392671 35.141612 35.631542 34.164792 36.108907 33.492012 C 36.594227 32.819231 37.290158 32.482771 38.197151 32.482771 z " />
    <g
       aria-label="id"
       transform="matrix(0.99667241,0,0,1.0033387,1.0015526,-0.17787754)"
       id="text899"
       style="font-size:24.5227px;line-height:1;font-family:'DejaVu Sans Mono';-inkscape-font-specification:'DejaVu Sans Mono';fill:#ffffff;stroke:#ff0000;stroke-width:0.0499999;stroke-linejoin:bevel;paint-order:stroke fill markers" />
  </g>
</svg>
